<svg xmlns="http://www.w3.org/2000/svg" width="48" height="48" viewBox="0 0 48 48">
  <g id="Group_117" data-name="Group 117" transform="translate(-1767 -21)">
    <circle id="Ellipse_40" data-name="Ellipse 40" cx="24" cy="24" r="24" transform="translate(1767 21)" fill="#e9e9e9"/>
    <g id="Group_78" data-name="Group 78" transform="translate(1777.274 32.068)">
      <path id="Path_79" data-name="Path 79" d="M199.317,584.347H186.752c-.567,0-.751-.169-.731-.73a13.155,13.155,0,0,1,6.248-11.1.625.625,0,0,1,.818.053,10.108,10.108,0,0,0,12.475.046c.4-.309.535-.319.951-.045a13.17,13.17,0,0,1,6.083,9.717,13.437,13.437,0,0,1,.082,1.4c.012.476-.182.664-.663.664q-4.833,0-9.665,0Z" transform="translate(-186.019 -557.683)" fill="#fff"/>
      <path id="Path_80" data-name="Path 80" d="M288.928,365.87a6.933,6.933,0,1,1,6.942-6.959A6.945,6.945,0,0,1,288.928,365.87Z" transform="translate(-275.606 -352.004)" fill="#fff"/>
    </g>
  </g>
</svg>
